<svg xmlns="http://www.w3.org/2000/svg" viewBox="0 0 128 128" role="img" aria-label="Escudo do Vaticano estilizado">
  <defs>
    <linearGradient id="shieldGold" x1="0" x2="1">
      <stop offset="0%" stop-color="#d4af37"/>
      <stop offset="100%" stop-color="#f2d67a"/>
    </linearGradient>
  </defs>
  <path d="M64 8c24 0 44 10 44 10v44c0 28-20 46-44 58C40 108 20 90 20 62V18s20-10 44-10z" fill="url(#shieldGold)" stroke="#8f6d1f" stroke-width="3"/>
  <path d="M46 80l16-16m4-4l16-16" stroke="#f7f2de" stroke-width="8" stroke-linecap="round"/>
  <path d="M82 80L66 64m-4-4L46 44" stroke="#9e9e9e" stroke-width="8" stroke-linecap="round"/>
  <circle cx="46" cy="80" r="6" fill="#f7f2de" stroke="#8f6d1f" stroke-width="2"/>
  <circle cx="82" cy="80" r="6" fill="#b0b0b0" stroke="#555" stroke-width="2"/>
  <path d="M64 24l9 8v12h-18V32z" fill="#f8f8f8" stroke="#8f6d1f" stroke-width="2"/>
  <path d="M54 24h20l-4-8H58z" fill="#d22f27" stroke="#8f6d1f" stroke-width="2"/>
  <path d="M64 46v28" stroke="#8f6d1f" stroke-width="3"/>
</svg>
